<svg xmlns="http://www.w3.org/2000/svg" xmlns:xlink="http://www.w3.org/1999/xlink" width="40" zoomAndPan="magnify" viewBox="0 0 30 30.000001" height="40" preserveAspectRatio="xMidYMid meet" version="1.0"><defs><clipPath id="e6f180dda8"><path d="M 2.332031 1.847656 L 16 1.847656 L 16 16 L 2.332031 16 Z M 2.332031 1.847656 " clip-rule="nonzero"/></clipPath><clipPath id="f257bc5d15"><path d="M 2.332031 1.847656 L 27.734375 1.847656 L 27.734375 27.25 L 2.332031 27.25 Z M 2.332031 1.847656 " clip-rule="nonzero"/></clipPath></defs><g clip-path="url(#e6f180dda8)"><path fill="#ffc100" d="M 15.570312 14.039062 C 15.566406 14.03125 15.5625 14.027344 15.558594 14.023438 L 11.3125 9.777344 L 11.3125 7.105469 C 11.3125 6.910156 11.234375 6.71875 11.09375 6.582031 L 6.628906 2.066406 C 6.417969 1.851562 6.09375 1.789062 5.816406 1.902344 C 5.539062 2.019531 5.359375 2.289062 5.359375 2.589844 L 5.359375 4.824219 L 3.074219 4.824219 C 2.773438 4.824219 2.503906 5.003906 2.386719 5.285156 C 2.273438 5.5625 2.335938 5.882812 2.550781 6.09375 L 7.066406 10.609375 C 7.203125 10.75 7.394531 10.828125 7.589844 10.828125 L 10.257812 10.828125 L 14.507812 15.074219 C 14.511719 15.078125 14.515625 15.082031 14.519531 15.085938 C 14.8125 15.359375 15.25 15.363281 15.542969 15.085938 C 15.855469 14.789062 15.847656 14.328125 15.570312 14.039062 Z M 15.570312 14.039062 " fill-opacity="1" fill-rule="nonzero"/></g><g clip-path="url(#f257bc5d15)"><path fill="#ffc100" d="M 15.03125 1.847656 C 13.128906 1.847656 11.328125 2.332031 9.707031 3.089844 L 11.988281 5.371094 C 12.949219 5.054688 13.96875 4.875 15.03125 4.875 C 20.367188 4.875 24.707031 9.214844 24.707031 14.550781 C 24.707031 19.882812 20.367188 24.222656 15.03125 24.222656 C 9.699219 24.222656 5.359375 19.882812 5.359375 14.550781 C 5.359375 13.484375 5.535156 12.464844 5.855469 11.503906 L 3.574219 9.222656 C 2.816406 10.84375 2.332031 12.644531 2.332031 14.550781 C 2.332031 21.527344 8.054688 27.25 15.03125 27.25 C 22.007812 27.25 27.734375 21.527344 27.734375 14.550781 C 27.734375 7.574219 22.007812 1.847656 15.03125 1.847656 Z M 15.03125 1.847656 " fill-opacity="1" fill-rule="nonzero"/></g><path fill="#ffc100" d="M 15.03125 7.851562 C 14.246094 7.851562 13.503906 8.011719 12.800781 8.261719 L 12.800781 9.160156 L 14.519531 10.878906 C 14.691406 10.855469 14.859375 10.828125 15.03125 10.828125 C 17.085938 10.828125 18.753906 12.496094 18.753906 14.550781 C 18.753906 16.601562 17.085938 18.269531 15.03125 18.269531 C 12.980469 18.269531 11.3125 16.601562 11.3125 14.550781 C 11.3125 14.375 11.339844 14.207031 11.363281 14.035156 L 9.644531 12.316406 L 8.746094 12.316406 C 8.496094 13.019531 8.335938 13.761719 8.335938 14.550781 C 8.335938 18.242188 11.339844 21.246094 15.03125 21.246094 C 18.726562 21.246094 21.730469 18.242188 21.730469 14.550781 C 21.730469 10.855469 18.726562 7.851562 15.03125 7.851562 Z M 15.03125 7.851562 " fill-opacity="1" fill-rule="nonzero"/></svg>